<?xml version="1.0" encoding="utf-8"?>
<svg width="11px" height="20px" viewBox="0 0 11 20" version="1.1" xmlns:xlink="http://www.w3.org/1999/xlink" xmlns="http://www.w3.org/2000/svg">
  <path d="M7.125 20L7.125 11.0547L10.1667 11.0547L10.6667 7.5L7.125 7.5L7.125 5.03906C7.125 4.46619 7.23608 4.04944 7.45831 3.78906C7.73608 3.47656 8.25 3.32031 9 3.32031L11 3.32031L11 0.15625C10.25 0.052124 9.27777 0 8.08331 0C6.61108 0 5.43054 0.410156 4.54169 1.23047C3.65277 2.05078 3.20831 3.20313 3.20831 4.6875L3.20831 7.5L0 7.5L0 11.0547L3.20831 11.0547L3.20831 20L7.125 20Z" id="" fill="#FFFFFF" stroke="none" />
</svg>