<?xml version="1.0" encoding="utf-8"?>
<svg width="30" height="30" viewBox="0 0 30 30" fill="none" stroke="none" version="1.1" xmlns:xlink="http://www.w3.org/1999/xlink" xmlns="http://www.w3.org/2000/svg">
  <g id="Group">
    <g id="happy-face">
      <path id="Happy" d="M15 30C6.72906 30 0 23.2709 0 15C0 6.72906 6.72906 0 15 0C23.2709 0 30 6.72906 30 15C30 23.2709 23.2709 30 15 30ZM15 1.875C7.76281 1.875 1.875 7.76281 1.875 15C1.875 22.2372 7.76281 28.125 15 28.125C22.2372 28.125 28.125 22.2372 28.125 15C28.125 7.76281 22.2372 1.875 15 1.875ZM23.3388 18.2319C23.5691 17.7709 23.3828 17.2138 22.9241 16.98C22.4644 16.7478 21.9019 16.9306 21.6647 17.3875C21.5959 17.5194 19.9306 20.625 15 20.625C10.0813 20.625 8.41219 17.5347 8.33594 17.3888C8.10375 16.9281 7.54156 16.7416 7.08063 16.9741C6.6175 17.2056 6.42969 17.7688 6.66125 18.2319C6.74875 18.4063 8.86594 22.5 15 22.5C21.1341 22.5 23.2513 18.4063 23.3388 18.2319ZM19.6875 13.125C18.6534 13.125 17.8125 12.2841 17.8125 11.25C17.8125 10.2159 18.6534 9.375 19.6875 9.375C20.7216 9.375 21.5625 10.2159 21.5625 11.25C21.5625 12.2841 20.7216 13.125 19.6875 13.125ZM10.3125 13.125C9.27844 13.125 8.4375 12.2841 8.4375 11.25C8.4375 10.2159 9.27844 9.375 10.3125 9.375C11.3466 9.375 12.1875 10.2159 12.1875 11.25C12.1875 12.2841 11.3466 13.125 10.3125 13.125Z" style="fill:#E6AB00;mix-blend-mode:normal;" />
    </g>
  </g>
</svg>