<?xml version="1.0" encoding="utf-8"?>
<svg width="20px" height="20px" viewBox="0 0 20 20" version="1.1" xmlns:xlink="http://www.w3.org/1999/xlink" xmlns="http://www.w3.org/2000/svg">
  <path d="M10.5641 19.9994C12.2073 19.9954 13.4107 19.9733 14.1741 19.933C15.0223 19.8884 15.7589 19.762 16.3839 19.5536C17.128 19.2858 17.7753 18.8765 18.3259 18.3259C18.8765 17.7753 19.2857 17.1279 19.5536 16.3839C19.7619 15.7589 19.8884 15.0223 19.933 14.1741C19.9777 13.3259 20 11.9346 20 10L19.9982 8.9054C19.9935 7.53394 19.9792 6.51489 19.9554 5.84827C19.8958 4.98511 19.7619 4.24109 19.5536 3.61609C19.2857 2.87207 18.8765 2.22473 18.3259 1.67407C17.7753 1.12354 17.128 0.714233 16.3839 0.446411C15.7589 0.238037 15.0223 0.111572 14.1741 0.0670166C13.3259 0.0223389 11.9345 0 10 0L9.43591 0.000610352C7.79266 0.00463867 6.58929 0.0267334 5.82587 0.0670166C4.97766 0.111572 4.24109 0.238037 3.61609 0.446411C2.87201 0.714233 2.22473 1.12354 1.67413 1.67407C1.12354 2.22473 0.714294 2.87207 0.446411 3.61609C0.238098 4.24109 0.111633 4.97766 0.0669556 5.82593C0.0223389 6.67407 0 8.06543 0 10L0.000671387 10.5641C0.00469971 12.2074 0.0267944 13.4108 0.0669556 14.1741C0.111633 15.0223 0.238098 15.7589 0.446411 16.3839C0.714294 17.1279 1.12354 17.7753 1.67413 18.3259C2.22473 18.8765 2.87201 19.2709 3.61609 19.5089C4.24109 19.7471 4.97766 19.8884 5.82587 19.933C6.67413 19.9777 8.06549 20 10 20L10.5641 19.9994ZM11.1579 18.2136L8.79193 18.2134C7.8371 18.2097 7.0791 18.1952 6.51788 18.1697C5.41669 18.1101 4.6131 17.9911 4.10712 17.8125C3.21429 17.4553 2.5744 16.8154 2.1875 15.8928C2.00891 15.387 1.88989 14.5834 1.83038 13.4822C1.8006 12.8274 1.78571 11.9048 1.78571 10.7142L1.78662 8.79187C1.79028 7.83716 1.80487 7.0791 1.83038 6.51782C1.88989 5.38696 2.00891 4.58337 2.1875 4.10718C2.54462 3.18457 3.18451 2.54468 4.10712 2.1875C4.6131 2.00891 5.41669 1.88989 6.51788 1.83032C7.17261 1.80054 8.09521 1.78577 9.28571 1.78577L11.2081 1.78662C12.1629 1.79028 12.9209 1.80481 13.4821 1.83032C14.6131 1.88989 15.4167 2.00891 15.8929 2.1875C16.8155 2.54468 17.4554 3.18457 17.8125 4.10718C17.9911 4.58337 18.1101 5.38696 18.1696 6.51782C18.1994 7.14282 18.2143 8.06543 18.2143 9.28577L18.2143 10.7142C18.2143 11.9048 18.1994 12.8274 18.1696 13.4822C18.1101 14.5834 17.9911 15.387 17.8125 15.8928C17.4554 16.7858 16.8155 17.4255 15.8929 17.8125C15.4167 17.9911 14.6131 18.1101 13.4821 18.1697C12.8571 18.1995 11.9345 18.2142 10.7143 18.2142L11.1579 18.2136ZM15.3571 5.84827C15.6845 5.84827 15.9598 5.72913 16.183 5.49109C16.4063 5.25293 16.5327 4.97021 16.5625 4.64282C16.5625 4.31543 16.4435 4.03271 16.2054 3.79468C15.9673 3.55652 15.6845 3.4375 15.3571 3.4375C15.0298 3.4375 14.747 3.55652 14.5089 3.79468C14.2708 4.03271 14.1518 4.31543 14.1518 4.64282C14.1518 4.97021 14.2708 5.25293 14.5089 5.49109C14.747 5.72913 15.0298 5.84827 15.3571 5.84827ZM10 15.1339C10.9226 15.1339 11.7783 14.9033 12.567 14.442C13.3557 13.9807 13.9807 13.3557 14.442 12.567C14.9033 11.7783 15.1339 10.9226 15.1339 10C15.1339 9.07739 14.9033 8.22168 14.442 7.43298C13.9807 6.64429 13.3557 6.01929 12.567 5.55798C11.7783 5.09668 10.9226 4.86609 10 4.86609C9.07739 4.86609 8.22174 5.09668 7.43304 5.55798C6.64435 6.01929 6.01935 6.64429 5.55804 7.43298C5.09674 8.22168 4.86609 9.07739 4.86609 10C4.86609 10.9226 5.09674 11.7783 5.55804 12.567C6.01935 13.3557 6.64435 13.9807 7.43304 14.442C8.22174 14.9033 9.07739 15.1339 10 15.1339ZM10 13.3483C9.07739 13.3483 8.2887 13.0209 7.63391 12.3661C6.97919 11.7113 6.65179 10.9226 6.65179 10C6.65179 9.07739 6.97919 8.2887 7.63391 7.63391C8.2887 6.97913 9.07739 6.65173 10 6.65173C10.9226 6.65173 11.7113 6.97913 12.3661 7.63391C13.0208 8.2887 13.3482 9.07739 13.3482 10C13.3482 10.9226 13.0208 11.7113 12.3661 12.3661C11.7113 13.0209 10.9226 13.3483 10 13.3483Z" id="" fill="#FFFFFF" stroke="none" />
</svg>