<?xml version="1.0" encoding="utf-8"?>
<svg width="255.38379px" height="34px" viewBox="0 0 255.38379 34" version="1.1" xmlns:xlink="http://www.w3.org/1999/xlink" xmlns="http://www.w3.org/2000/svg">
  <g id="Group-2">
    <g id="logo-kachelweelde-white">
      <path d="M11.8704 33.712C26.4726 32.8069 38.2393 28.0722 45.6071 15.9961C52.3429 4.96999 55.1636 3.29303 66.3428 0.144821C52.1734 1.69342 42.895 2.83553 36.1246 13.8699C28.2598 27.7085 22.1016 30.9703 11.8704 33.712Z" id="Path" fill="#333333" stroke="none" />
      <path d="M0 34C11.7272 32.8924 22.4226 30.2561 31.4113 14.696C39.3419 0.970958 53.5113 0.00164569 53.5113 0.00164569C53.5113 0.00164569 32.9237 0.467377 24.9931 12.2094C24.2657 13.2873 23.591 14.3126 22.9558 15.2885C16.6692 24.9487 14.1266 29.8446 0 34Z" id="Path" fill="#333333" stroke="none" />
      <path d="M0 34C8.60203 33.187 16.7219 31.6253 23.8773 24.5949C28.7009 19.8553 25.9888 15.8365 20.1268 14.6302C22.518 15.7147 20.4115 19.2085 19.8289 20.0742C15.3724 26.6915 11.5873 30.5951 0 34Z" id="Path" fill="#333333" stroke="none" />
      <path d="M33.8832 11.0426C41.9635 0.791578 53.5113 0 53.5113 0C53.5113 0 32.9237 0.467377 24.9931 12.2094C24.2657 13.2873 22.5591 15.9056 23.1944 14.9297C26.3607 15.1437 30.3762 14.6302 33.8832 11.0426Z" id="Path" fill="#333333" stroke="none" />
      <path d="M1.30503 30.8419C13.5045 27.0815 16.0949 17.8706 21.8449 10.674C26.7557 4.53059 34.7751 1.07299 40.6963 0.287996C23.7967 0.870571 8.16757 9.1879 1.30503 30.8419Z" id="Path" fill="#333333" stroke="none" />
    </g>
    <g id="Group" transform="translate(66.34279 4.3404255)">
      <path d="M0 2.47452L5.41043 2.47452L5.41043 14.0485L6.94355 14.0485L10.1236 8.73116L16.0037 8.73116L11.2802 16.0513L11.2802 16.1133L16.6596 24.8404L10.5084 24.8404L7.10079 18.5796L5.41249 18.5796L5.41249 24.8362L0 24.8362L0 2.47452Z" id="Path" fill="#FFFFFF" stroke="none" />
      <path d="M26.3176 14.7995L26.5369 14.7995L26.5369 14.5181C26.5369 13.1733 25.5024 12.7347 24.1597 12.7347C22.1258 12.7347 19.8148 14.2678 19.8148 14.2678L17.9382 10.4526C19.9338 9.10097 22.2854 8.37158 24.6955 8.35668C29.2308 8.35668 31.9515 10.8271 31.9515 14.9257L31.9515 24.8404L27.0066 24.8404L27.0066 23.87C27.0076 23.5353 27.0283 23.2009 27.0687 22.8686L27.0066 22.8686C27.0066 22.8686 25.819 25.2149 22.4403 25.2149C19.4382 25.2149 16.9658 23.2121 16.9658 20.0217C16.9658 15.3313 23.8162 14.7995 26.3176 14.7995ZM23.9404 21.0872C25.3473 21.0872 26.599 19.5541 26.599 18.2403L26.599 17.8968L26.0983 17.8968C24.3769 17.8968 22.4072 18.3975 22.4072 19.7424C22.4072 20.4934 22.8769 21.0872 23.9404 21.0872Z" id="Shape" fill="#FFFFFF" stroke="none" />
      <path d="M42.4724 8.35668C46.8524 8.35668 48.8862 10.796 48.8862 10.796L46.6103 14.425C46.6103 14.425 45.0462 12.8609 42.8261 12.8609C40.2606 12.8609 38.9778 14.7995 38.9778 16.7092C38.9778 18.6189 40.2916 20.7127 43.0124 20.7127C45.2655 20.7127 47.4235 18.7741 47.4235 18.7741L49.3931 22.5583C49.3931 22.5583 46.9848 25.2169 42.4806 25.2169C36.7247 25.2169 33.5033 21.2134 33.5033 16.7713C33.5033 12.4533 36.6854 8.35668 42.4724 8.35668Z" id="Path" fill="#FFFFFF" stroke="none" />
      <path d="M50.6759 2.47452L56.0884 2.47452L56.0884 9.54428C56.0907 10.0037 56.07 10.4629 56.0263 10.9202L56.0884 10.9202C56.9946 9.32497 58.8733 8.35461 61.0002 8.35461C64.2527 8.35461 66.7934 9.8567 66.7934 14.3919L66.7934 24.8383L61.3644 24.8383L61.3644 15.3933C61.3644 13.8912 60.7706 13.2664 59.5809 13.2664C57.9257 13.2664 56.8291 14.2368 56.3595 15.6437C56.15 16.3126 56.0549 17.0121 56.0781 17.7127L56.0781 24.8445L50.6759 24.8445L50.6759 2.47452Z" id="Path" fill="#FFFFFF" stroke="none" />
      <path d="M76.768 8.35668C81.5267 8.35668 84.2164 11.6671 84.2164 16.1444C84.2164 16.6761 84.0923 17.8327 84.0923 17.8327L73.9211 17.8327C74.3349 19.8044 75.9549 20.7107 77.6743 20.7107C79.9895 20.7107 82.1164 19.0844 82.1164 19.0844L84.1192 22.8686C84.1192 22.8686 81.5226 25.2149 77.2377 25.2149C71.4818 25.2149 68.3845 21.0541 68.3845 16.7692C68.3845 12.0478 71.5728 8.35668 76.768 8.35668ZM78.7708 14.7375C78.7708 13.5168 77.9267 12.4223 76.6439 12.4223C75.0797 12.4223 74.3287 13.5478 74.0473 14.7375L78.7708 14.7375Z" id="Shape" fill="#FFFFFF" stroke="none" />
      <path d="M85.9151 2.47452L91.3255 2.47452L91.3255 18.1761C91.3255 19.7093 91.6069 20.2451 92.8276 20.2451C93.171 20.2451 93.4835 20.2141 93.4835 20.2141L93.4835 24.9066C92.9407 24.9659 92.395 24.9949 91.8489 24.9935C88.971 24.9935 85.9068 24.3045 85.9068 18.8941L85.9151 2.47452Z" id="Path" fill="#FFFFFF" stroke="none" />
      <path d="M96.9097 9.6829L98.8525 9.6829L98.8525 22.4403L98.8525 22.4403L106.396 9.6829L108.275 9.6829L109.481 22.4403L109.547 22.4403L116.451 9.6829L118.429 9.6829L109.994 24.9231L107.95 24.9231L106.632 12.4616L106.566 12.4616L99.0904 24.9231L96.918 24.9231L96.9097 9.6829Z" id="Path" fill="#FFFFFF" stroke="none" />
      <path d="M130.156 22.0555C128.26 24.1659 125.545 25.3551 122.708 25.3183C118.059 25.3183 115.858 21.9893 117.08 17.274C118.26 12.7223 122.315 9.296 126.765 9.296C131.445 9.296 132.987 12.8898 132.072 16.4175L131.712 17.8016L118.93 17.8016C118.502 19.4568 118.597 23.5369 123.211 23.5369C125.222 23.5369 127.605 22.4817 129.023 20.8327L130.156 22.0555ZM130.204 16.0223C130.905 13.3181 129.147 11.0774 126.213 11.0774C121.895 11.0774 119.592 15.2319 119.385 16.0223L130.204 16.0223Z" id="Shape" fill="#FFFFFF" stroke="none" />
      <path d="M146.837 22.0555C144.94 24.1661 142.225 25.3554 139.388 25.3183C134.739 25.3183 132.538 21.9893 133.761 17.274C134.94 12.7223 138.995 9.296 143.446 9.296C148.128 9.296 149.667 12.8898 148.753 16.4175L148.393 17.8016L135.61 17.8016C135.182 19.4568 135.277 23.5369 139.891 23.5369C141.902 23.5369 144.286 22.4817 145.701 20.8327L146.837 22.0555ZM146.884 16.0223C147.586 13.3181 145.827 11.0774 142.893 11.0774C138.575 11.0774 136.272 15.2319 136.065 16.0223L146.884 16.0223Z" id="Shape" fill="#FFFFFF" stroke="none" />
      <path d="M155.417 2.84217e-14L157.395 2.84217e-14L150.931 24.9231L148.953 24.9231L155.417 2.84217e-14Z" id="Path" fill="#FFFFFF" stroke="none" />
      <path d="M168.195 22.2521L168.129 22.2521C166.362 24.3624 163.509 25.3183 161.235 25.3183C156.553 25.3183 154.097 21.9562 155.301 17.3072C156.505 12.6581 160.709 9.296 165.389 9.296C167.665 9.296 170.02 10.2519 170.692 12.3623L170.758 12.3623L173.965 0L175.943 0L169.478 24.9231L167.5 24.9231L168.195 22.2521ZM164.93 11.0795C161.206 11.0795 158.171 13.8809 157.275 17.3092C156.379 20.7375 157.974 23.5452 161.698 23.5452C165.292 23.5452 168.787 20.7438 169.676 17.3154C170.566 13.8871 168.524 11.0774 164.93 11.0774L164.93 11.0795Z" id="Shape" fill="#FFFFFF" stroke="none" />
      <path d="M186.874 22.0555C184.977 24.1659 182.262 25.3551 179.425 25.3183C174.776 25.3183 172.575 21.9893 173.798 17.274C174.977 12.7223 179.032 9.296 183.483 9.296C188.165 9.296 189.704 12.8898 188.79 16.4175L188.43 17.8016L175.643 17.8016C175.215 19.4568 175.31 23.5369 179.924 23.5369C181.935 23.5369 184.319 22.4817 185.736 20.8327L186.874 22.0555ZM186.921 16.0223C187.623 13.3181 185.864 11.0774 182.93 11.0774C178.612 11.0774 176.31 15.2319 176.103 16.0223L186.921 16.0223Z" id="Shape" fill="#FFFFFF" stroke="none" />
    </g>
  </g>
</svg>