<?xml version="1.0" encoding="utf-8"?>
<svg width="15px" height="20px" viewBox="0 0 15 20" version="1.1" xmlns:xlink="http://www.w3.org/1999/xlink" xmlns="http://www.w3.org/2000/svg">
  <path d="M3.32031 20L3.47656 19.92C4.28387 18.8 4.84375 17.88 5.15625 17.16C5.36456 16.6267 5.638 15.6666 5.97656 14.28L5.97656 14.28L6.28906 13C6.52344 13.4534 6.90106 13.8066 7.42188 14.0601C7.94269 14.3134 8.46356 14.4399 8.98438 14.4399C10.2864 14.4399 11.4193 14.04 12.3828 13.24C13.2422 12.52 13.9063 11.5333 14.375 10.28C14.7917 9.1333 15 7.91333 15 6.62C15 5.32666 14.6614 4.16003 13.9844 3.12C13.3594 2.16003 12.5065 1.40662 11.4258 0.859985C10.345 0.313354 9.19269 0.0266113 7.96875 0C6.61456 0 5.3255 0.300049 4.10156 0.900024C2.87762 1.5 1.90106 2.31995 1.17188 3.35999C0.390625 4.47998 0 5.76001 0 7.19995C0 8.07996 0.14325 8.88 0.429688 9.59998C0.690125 10.2134 1.01563 10.7 1.40625 11.0601C1.79688 11.42 2.16144 11.6 2.5 11.6C2.65625 11.6 2.7995 11.4 2.92969 11C3.03387 10.6801 3.08594 10.4133 3.08594 10.2C3.08594 10.12 3.00781 9.94666 2.85156 9.68005C2.64325 9.33337 2.5 9.04004 2.42188 8.80005C2.26563 8.37329 2.1875 7.93335 2.1875 7.47998C2.1875 6.41333 2.42188 5.46667 2.89063 4.64001C3.35938 3.81335 4.01691 3.16003 4.86328 2.68005C5.70966 2.19995 6.64063 1.95996 7.65625 1.95996C9.03644 1.95996 10.1497 2.34668 10.9961 3.12C11.8425 3.89331 12.2656 4.97339 12.2656 6.35999C12.2656 7.18665 12.1614 8.02661 11.9531 8.88C11.7188 9.92004 11.3542 10.7467 10.8594 11.36C10.2864 12.1067 9.58331 12.48 8.75 12.48C8.25519 12.48 7.83203 12.3134 7.48047 11.98C7.12891 11.6466 6.95313 11.2267 6.95313 10.72C6.95313 10.4 7.00519 10.0266 7.10938 9.59998C7.16144 9.35999 7.27863 8.98669 7.46094 8.47998L7.5625 8.19202C7.6875 7.82935 7.77081 7.552 7.8125 7.35999C7.91669 6.93335 7.96875 6.54663 7.96875 6.19995C7.96875 5.56006 7.78644 5.09338 7.42188 4.80005C7.05731 4.50671 6.62762 4.41333 6.13281 4.52002C5.638 4.62671 5.22137 4.89331 4.88281 5.31995C4.49219 5.82666 4.29688 6.46667 4.29688 7.23999C4.29688 8.06665 4.42706 8.73328 4.6875 9.23999L4.6875 9.23999L4.21875 11.16C3.85419 12.6267 3.59375 13.7333 3.4375 14.48C3.17706 15.76 3.04688 16.8 3.04688 17.6C3.04688 17.9734 3.08594 18.5333 3.16406 19.28L3.16406 19.28L3.20313 19.88L3.32031 20Z" id="" fill="#FFFFFF" stroke="none" />
</svg>