<?xml version="1.0" encoding="utf-8"?>
<svg width="20px" height="20px" viewBox="0 0 20 20" version="1.1" xmlns:xlink="http://www.w3.org/1999/xlink" xmlns="http://www.w3.org/2000/svg">
  <path d="M0 20L5.26788 18.6161C6.7262 19.4197 8.30359 19.8214 10 19.8214C11.7857 19.8214 13.4449 19.375 14.9777 18.4822C16.5104 17.5892 17.7307 16.3839 18.6384 14.8661C19.5461 13.3483 20 11.6964 20 9.91077C20 8.6012 19.7396 7.34375 19.2188 6.13843C18.6979 4.93298 17.9613 3.85413 17.0089 2.90173C16.0565 1.97913 14.9777 1.26489 13.7723 0.758911C12.567 0.25293 11.3095 0 10 0C8.21429 0 6.5625 0.446411 5.04462 1.33923C3.52679 2.23218 2.32141 3.4375 1.42859 4.95532C0.535706 6.47327 0.0892944 8.125 0.0892944 9.91077C0.0892944 11.6964 0.535706 13.3483 1.42859 14.8661L1.42859 14.8661L0 20ZM10 18.1697C8.48212 18.1697 7.08331 17.7827 5.80359 17.0089L5.80359 17.0089L5.49109 16.8303L2.36609 17.6339L3.21429 14.5983L3.03571 14.2858C2.17261 12.9464 1.74109 11.488 1.74109 9.91077C1.74109 8.42261 2.1131 7.04614 2.85712 5.78125C3.6012 4.51636 4.60565 3.51196 5.87054 2.76782C7.13544 2.0238 8.5119 1.65173 10 1.65173C11.1012 1.65173 12.1503 1.86011 13.1473 2.27673C14.1443 2.69348 15.0372 3.29614 15.8259 4.08484C16.6146 4.87354 17.2321 5.7738 17.6786 6.78577C18.125 7.79761 18.3482 8.83923 18.3482 9.91077C18.3482 11.3988 17.9688 12.7753 17.2098 14.0402C16.4509 15.3051 15.4315 16.3096 14.1518 17.0536C12.872 17.7976 11.4881 18.1697 10 18.1697ZM11.9643 14.6428C12.3512 14.7024 12.753 14.7024 13.1696 14.6428C13.4375 14.613 13.7574 14.4717 14.1295 14.2188C14.5015 13.9658 14.7396 13.7128 14.8438 13.4598C14.9479 13.2068 15.0074 12.9613 15.0223 12.7233C15.0372 12.4851 15.0298 12.3363 15 12.2767C14.9702 12.2173 14.8512 12.1428 14.6429 12.0536L14.6429 12.0536L14.5089 11.9642C13.6161 11.5178 13.0506 11.25 12.8125 11.1608C12.6935 11.131 12.5893 11.1161 12.5 11.1161C12.4107 11.1161 12.3363 11.1755 12.2768 11.2947C12.128 11.5029 11.8601 11.8303 11.4732 12.2767C11.3542 12.4255 11.1756 12.4404 10.9375 12.3214C10.1042 11.9048 9.47919 11.5327 9.0625 11.2053C8.49701 10.7589 8.00598 10.1488 7.58929 9.375C7.5 9.28577 7.47021 9.20386 7.5 9.12952C7.52979 9.05505 7.60419 8.95837 7.72321 8.83923C7.9613 8.6012 8.15479 8.33337 8.30359 8.03577C8.3631 7.91663 8.34821 7.76782 8.25891 7.58923L8.25891 7.58923L7.5 5.75891C7.44049 5.58032 7.37354 5.46875 7.29913 5.42407C7.22473 5.37952 7.12799 5.35718 7.00891 5.35718L7.00891 5.35718L6.47321 5.35718C6.23511 5.35718 6.0119 5.4613 5.80359 5.66968L5.80359 5.66968L5.75891 5.71423C5.22321 6.27979 4.95538 6.94946 4.95538 7.72327C4.95538 8.49707 5.28271 9.34521 5.9375 10.2678L5.9375 10.2678L6.02679 10.3572C7.27679 12.1428 8.66071 13.363 10.1786 14.0178C10.9226 14.3452 11.5179 14.5536 11.9643 14.6428Z" id="" fill="#FFFFFF" stroke="none" />
</svg>